<?xml version="1.0" standalone="no"?>
<!DOCTYPE svg PUBLIC "-//W3C//DTD SVG 20010904//EN"
 "http://www.w3.org/TR/2001/REC-SVG-20010904/DTD/svg10.dtd">
<svg version="1.0" xmlns="http://www.w3.org/2000/svg"
 width="260.000000pt" height="260.000000pt" viewBox="0 0 260.000000 260.000000"
 preserveAspectRatio="xMidYMid meet">
<metadata>
Created by potrace 1.11, written by Peter Selinger 2001-2013
</metadata>
<g transform="translate(0.000000,260.000000) scale(0.100000,-0.100000)"
fill="#000000" stroke="none">
<path d="M1092 2348 c-9 -17 -24 -39 -32 -48 -8 -9 -16 -22 -17 -28 -2 -6 -23
-45 -47 -86 -25 -42 -43 -76 -40 -76 3 0 -1 -7 -8 -15 -31 -34 -36 -43 -31
-49 4 -3 1 -6 -5 -6 -7 0 -12 -5 -12 -11 0 -6 -32 -65 -72 -132 -39 -67 -71
-123 -69 -125 1 -1 -5 -10 -14 -18 -8 -9 -13 -20 -10 -25 4 -5 1 -9 -4 -9 -6
0 -11 -7 -11 -17 0 -9 -3 -14 -6 -10 -3 3 -24 -29 -45 -71 -22 -42 -43 -79
-47 -82 -4 -3 -17 -23 -29 -45 -37 -69 -59 -108 -92 -160 -17 -27 -36 -62 -42
-77 -6 -16 -16 -28 -22 -28 -6 0 -8 -3 -4 -6 3 -3 -9 -29 -27 -57 -18 -29 -36
-62 -40 -74 -4 -13 -12 -23 -17 -23 -5 0 -9 -7 -9 -15 0 -8 -5 -15 -11 -15 -5
0 -8 -4 -5 -9 3 -5 -1 -14 -9 -21 -8 -7 -12 -16 -10 -21 3 -4 -1 -11 -9 -16
-8 -4 -15 -10 -15 -13 0 -11 -20 -54 -20 -45 -1 6 -13 -12 -27 -40 -14 -27
-31 -59 -37 -70 -7 -11 -39 -66 -71 -123 l-59 -103 23 -42 c13 -23 28 -51 34
-62 6 -11 16 -23 21 -27 6 -4 6 -8 2 -8 -5 0 1 -14 13 -30 12 -17 18 -30 13
-30 -4 0 -3 -4 2 -8 13 -9 30 -37 54 -90 11 -23 26 -48 33 -55 16 -15 118 -17
118 -2 0 7 3 7 8 0 4 -6 21 -11 37 -11 17 0 33 5 37 11 5 6 8 7 8 0 0 -14 390
-14 390 0 0 6 3 6 8 0 9 -14 65 -14 74 0 5 6 8 7 8 0 0 -14 390 -14 390 0 0 6
3 6 8 0 4 -6 21 -11 37 -11 17 0 33 5 37 11 5 6 8 7 8 0 0 -14 390 -14 390 0
0 6 3 6 8 0 4 -6 21 -11 37 -11 17 0 33 5 37 11 5 6 8 7 8 0 0 -14 390 -14
390 0 0 6 3 6 8 0 12 -17 46 -12 62 10 8 11 12 21 10 21 -3 1 4 12 15 25 12
13 14 19 5 14 -12 -7 -13 -6 -3 7 7 8 9 19 5 23 -4 5 -2 5 4 2 7 -4 15 3 19
16 4 12 9 24 10 27 1 3 6 15 10 27 4 13 11 23 14 23 4 0 8 6 8 13 0 6 17 48
37 92 39 83 39 81 3 140 -69 112 -147 248 -147 256 0 5 -5 9 -11 9 -5 0 -7 5
-4 10 3 6 2 10 -4 10 -10 0 -27 39 -23 53 1 5 -1 6 -6 3 -4 -2 -20 16 -34 42
-53 97 -63 116 -71 126 -22 30 -107 179 -107 187 0 5 -5 9 -11 9 -5 0 -8 4 -5
8 3 5 -4 18 -14 30 -11 12 -20 23 -20 26 0 9 -75 131 -85 138 -5 4 -6 8 -2 8
4 0 -5 19 -20 43 -16 23 -35 56 -43 72 -8 17 -17 32 -20 35 -6 5 -32 48 -72
119 -35 61 -150 256 -174 293 -13 21 -24 40 -24 43 0 2 -16 29 -35 59 -19 29
-31 56 -28 60 4 3 2 6 -4 6 -5 0 -18 16 -29 35 l-19 35 -193 0 -193 0 -17 -32z
m351 -47 c9 -1 17 -8 17 -16 0 -7 8 -19 18 -24 9 -6 14 -11 10 -11 -5 0 21
-47 56 -104 35 -58 61 -107 58 -110 -3 -3 -1 -6 4 -6 5 0 18 -17 29 -37 11
-21 22 -40 25 -43 3 -3 16 -25 29 -50 14 -25 27 -47 30 -50 3 -3 17 -25 30
-50 14 -25 27 -47 31 -50 3 -3 14 -22 23 -42 10 -21 22 -38 27 -38 6 0 9 -3 8
-7 -3 -13 24 -63 34 -63 4 0 7 -3 6 -7 0 -5 4 -19 10 -33 6 -14 11 -21 11 -16
1 10 59 -90 67 -116 4 -10 10 -18 15 -18 5 0 9 -5 9 -10 0 -6 23 -47 50 -91
28 -44 50 -85 50 -90 0 -5 5 -9 12 -9 6 0 8 -3 5 -7 -4 -3 2 -16 12 -27 11
-12 20 -25 21 -31 2 -15 102 -179 114 -187 6 -4 7 -8 2 -8 -5 0 -3 -7 4 -15 7
-8 10 -15 6 -15 -3 0 3 -9 14 -20 11 -11 20 -26 20 -34 0 -8 3 -16 8 -18 11
-4 97 -151 94 -161 -1 -4 5 -10 13 -13 8 -3 12 -10 9 -15 -3 -5 1 -9 8 -9 9 0
10 -2 1 -8 -14 -9 -1549 -10 -1558 -1 -6 7 32 79 48 90 5 3 9 10 9 15 1 15 42
99 51 102 4 2 7 9 7 16 0 7 9 21 20 31 12 11 20 13 20 6 0 -9 5 -9 20 -1 11 6
20 7 20 2 0 -5 18 -6 40 -2 22 4 40 5 40 1 0 -3 14 -6 30 -6 17 -1 30 3 30 7
0 5 8 4 19 -1 10 -6 21 -8 24 -5 8 8 57 12 57 5 0 -3 22 -6 49 -6 27 0 47 3
45 7 -3 5 6 4 19 -1 13 -5 30 -6 37 -1 7 5 23 5 35 0 12 -4 29 -4 38 1 10 6
17 6 17 1 0 -5 17 -6 40 -2 22 4 40 5 40 1 0 -3 22 -6 49 -6 27 0 47 3 45 7
-3 5 6 4 19 -1 13 -5 30 -6 37 -1 7 5 23 5 35 0 12 -4 29 -4 38 1 9 6 17 6 17
2 0 -4 22 -8 49 -8 27 0 48 2 46 6 -2 3 9 3 26 1 34 -5 33 4 -12 78 -15 25
-38 64 -50 88 -12 23 -26 42 -31 42 -4 0 -8 4 -8 9 0 6 -30 61 -67 123 -36 62
-73 128 -82 146 -8 17 -19 32 -23 32 -4 0 -8 6 -8 14 0 8 -3 16 -7 18 -10 4
-38 53 -54 91 -6 15 -15 27 -20 27 -5 0 -9 4 -9 9 0 5 -21 45 -47 88 -25 43
-55 95 -65 116 -10 20 -23 37 -29 37 -6 0 -8 4 -5 9 3 5 -1 14 -9 21 -8 7 -15
17 -15 22 0 6 -9 23 -21 39 -11 16 -18 29 -14 29 6 0 -4 14 -35 47 -8 9 -13
17 -10 17 3 1 -6 19 -19 41 -14 22 -24 44 -23 48 1 4 -5 10 -13 13 -8 3 -12
10 -9 15 3 5 0 9 -5 9 -6 0 -11 4 -11 10 0 5 -20 43 -44 84 -24 41 -40 76 -35
78 8 3 185 2 232 -1z m-248 -142 c100 -169 125 -213 131 -231 4 -10 10 -18 14
-18 4 0 13 -13 20 -30 7 -16 17 -30 23 -30 6 0 8 -3 4 -6 -3 -3 12 -35 34 -70
21 -35 36 -64 32 -64 -4 0 2 -7 13 -15 10 -8 15 -15 11 -15 -4 0 -3 -6 3 -12
18 -21 54 -82 56 -97 2 -8 7 -17 11 -20 14 -9 58 -85 55 -93 -1 -5 2 -8 6 -8
5 0 17 -18 27 -40 10 -22 22 -40 27 -40 4 0 8 -6 8 -14 0 -7 7 -19 15 -26 9
-7 13 -15 11 -18 -3 -3 3 -17 13 -31 10 -14 28 -42 38 -61 11 -19 43 -74 72
-122 28 -48 51 -92 51 -98 0 -6 6 -8 13 -4 9 5 9 4 0 -6 -14 -15 -50 -19 -81
-8 -13 4 -21 4 -18 -1 3 -4 -8 -8 -24 -7 -17 1 -30 6 -30 11 0 6 -4 4 -9 -4
-6 -9 -11 -10 -15 -2 -5 7 -13 8 -25 1 -14 -7 -24 -4 -41 10 -13 11 -19 20
-14 20 5 0 2 6 -7 13 -9 7 -16 14 -17 17 -1 16 -27 60 -34 60 -5 0 -7 4 -4 9
4 5 3 11 -1 13 -10 4 -73 106 -73 118 0 5 -4 10 -8 12 -10 4 -72 105 -72 118
0 6 -3 10 -8 10 -4 0 -18 20 -31 45 -13 25 -28 45 -33 45 -6 0 -8 6 -5 14 3 8
-1 17 -9 20 -8 3 -14 12 -14 21 0 8 -3 15 -8 15 -4 0 -12 8 -17 19 -35 66 -59
107 -64 111 -4 3 -24 35 -46 72 -42 72 -45 72 -80 6 -11 -21 -23 -38 -28 -38
-4 0 -6 -4 -2 -9 3 -5 -2 -16 -10 -24 -8 -9 -15 -22 -15 -30 0 -8 -7 -18 -16
-21 -8 -3 -12 -10 -9 -16 3 -5 1 -10 -6 -10 -7 0 -10 -3 -6 -6 3 -4 -5 -23
-18 -43 -14 -19 -25 -41 -25 -48 0 -7 -3 -13 -8 -13 -4 0 -16 -17 -27 -37 -11
-21 -35 -65 -55 -98 -19 -33 -33 -63 -32 -67 1 -5 -3 -8 -9 -8 -5 0 -8 -4 -4
-9 3 -6 -2 -14 -11 -19 -9 -5 -16 -13 -16 -18 -1 -18 -21 -54 -30 -54 -5 0 -7
-4 -4 -9 3 -5 -1 -14 -9 -21 -8 -7 -13 -16 -10 -20 3 -5 0 -12 -5 -15 -6 -4
-15 -17 -21 -28 -5 -12 -13 -29 -19 -37 -30 -47 -90 -151 -90 -158 0 -4 -11
-24 -25 -45 -14 -20 -23 -37 -20 -37 4 0 -1 -7 -9 -16 -9 -8 -16 -22 -16 -30
0 -8 -4 -14 -8 -14 -5 0 -17 -18 -27 -40 -10 -22 -23 -40 -28 -40 -6 0 -8 -3
-4 -6 3 -3 -5 -24 -19 -45 -13 -21 -24 -43 -24 -49 0 -5 -4 -10 -10 -10 -5 0
-6 -7 -3 -17 4 -11 3 -14 -5 -9 -7 4 -12 1 -12 -8 0 -8 -6 -21 -12 -28 -12
-12 -43 -66 -72 -125 -19 -38 -32 -33 -62 25 -16 32 -31 59 -34 62 -3 3 -12
19 -20 35 -8 17 -19 33 -24 36 -9 7 -13 54 -5 79 2 8 11 22 19 31 8 10 28 41
43 71 30 57 49 90 57 98 3 3 13 21 23 40 34 64 52 95 58 100 3 3 12 20 20 38
8 17 17 32 21 32 5 0 8 7 8 15 0 8 5 15 11 15 5 0 8 4 4 9 -3 6 3 14 12 20 10
6 14 11 10 11 -9 0 40 87 60 108 7 7 13 17 13 22 0 11 72 133 83 141 5 3 9 10
9 15 0 5 24 50 54 101 30 51 54 97 54 102 0 6 3 11 8 11 4 0 16 18 26 40 11
22 22 40 26 40 3 0 12 16 19 35 7 19 17 35 22 35 6 0 8 4 5 9 -3 5 1 14 9 21
8 7 15 19 15 26 0 8 5 14 10 14 6 0 10 7 10 15 0 8 8 24 18 35 9 11 17 24 17
28 1 4 13 26 28 49 15 24 27 47 27 53 0 5 4 10 9 10 7 0 22 35 20 48 0 2 8 11
18 20 10 9 19 22 20 29 2 7 19 37 38 67 19 30 35 60 35 66 0 5 5 10 11 10 5 0
7 5 4 10 -3 6 -3 10 2 10 4 0 35 -46 68 -101z m-50 -519 c-3 -5 -2 -10 4 -10
12 0 92 -143 83 -150 -4 -3 -23 -36 -42 -75 -19 -38 -38 -71 -42 -73 -5 -2 -8
-10 -8 -18 0 -8 -4 -14 -10 -14 -5 0 -9 -3 -8 -7 2 -11 -18 -53 -41 -87 -11
-17 -18 -33 -15 -38 3 -4 0 -8 -5 -8 -6 0 -11 -4 -11 -9 0 -5 -16 -37 -34 -70
-19 -34 -32 -61 -28 -61 4 0 2 -4 -4 -8 -6 -4 -33 -50 -60 -102 -27 -52 -55
-101 -61 -108 -7 -7 -13 -18 -13 -23 0 -5 -18 -41 -39 -79 -22 -37 -37 -71
-33 -74 3 -3 0 -6 -6 -6 -7 0 -12 -7 -12 -15 0 -8 -4 -15 -9 -15 -5 0 -8 -7
-7 -17 2 -15 67 -16 832 -15 456 0 837 -2 846 -4 15 -5 14 -10 -8 -51 -13 -25
-24 -52 -24 -59 0 -8 -4 -14 -10 -14 -5 0 -10 -5 -10 -11 0 -16 -49 -119 -57
-120 -36 -6 -60 -5 -70 3 -7 5 -13 5 -17 0 -7 -11 -125 -10 -143 1 -6 4 -14 4
-17 -1 -7 -11 -317 -9 -335 2 -9 6 -12 5 -8 -1 8 -13 -212 -12 -232 1 -9 6
-12 5 -8 -1 8 -12 -181 -12 -200 0 -6 4 -14 3 -17 -2 -7 -10 -126 -9 -143 2
-6 4 -14 4 -17 -1 -7 -11 -317 -9 -335 2 -9 6 -12 5 -8 -1 8 -13 -212 -12
-232 1 -9 6 -12 5 -8 -1 4 -7 -21 -10 -73 -9 -44 0 -80 4 -80 9 0 5 13 32 29
60 70 128 84 153 91 162 8 10 16 24 80 140 18 33 37 62 42 63 4 2 6 7 3 12 -3
5 0 14 7 22 7 7 27 39 43 71 17 31 34 57 38 57 5 0 6 4 3 9 -4 5 -3 11 2 13 4
1 20 28 36 58 16 30 42 79 58 109 15 30 28 51 28 46 0 -4 11 12 24 36 13 24
35 65 49 90 15 26 23 50 19 55 -4 5 -3 6 2 2 8 -7 40 38 52 75 4 9 11 17 16
17 5 0 7 4 3 9 -3 5 2 16 10 24 8 9 15 18 15 21 0 3 20 39 44 80 24 41 47 84
51 95 3 12 13 21 21 21 8 0 12 -4 9 -10z m170 -275 c11 -16 22 -32 25 -35 7
-6 17 -31 18 -44 0 -5 5 -12 11 -16 13 -7 101 -148 101 -160 0 -5 4 -10 8 -12
13 -5 74 -118 65 -119 -29 -4 -41 -4 -61 3 -14 5 -21 4 -17 -1 3 -6 -4 -9 -15
-8 -11 1 -20 5 -20 10 0 4 -6 5 -12 0 -17 -10 -29 -11 -56 -1 -15 5 -21 4 -17
-2 8 -13 -1 -13 -27 1 -14 7 -18 8 -14 0 7 -11 -57 -6 -77 6 -6 3 -7 1 -3 -5
4 -7 -1 -10 -14 -9 -11 1 -20 5 -20 10 0 4 -6 5 -12 0 -17 -10 -29 -11 -56 -1
-16 5 -21 4 -17 -3 4 -6 0 -9 -11 -7 -23 4 -44 21 -35 28 3 3 25 42 48 87 22
45 44 79 47 76 3 -4 6 2 6 13 0 10 9 30 20 44 11 14 20 33 20 43 0 9 5 17 11
17 5 0 7 5 4 10 -3 6 -2 10 2 10 5 0 17 20 28 45 11 25 23 45 28 45 4 0 6 3 6
8 -3 18 3 26 9 12 4 -8 16 -28 27 -45z"/>
</g>
</svg>
