<?xml version="1.0" standalone="no"?>
<!DOCTYPE svg PUBLIC "-//W3C//DTD SVG 20010904//EN"
 "http://www.w3.org/TR/2001/REC-SVG-20010904/DTD/svg10.dtd">
<svg version="1.0" xmlns="http://www.w3.org/2000/svg"
 width="368.000000pt" height="368.000000pt" viewBox="0 0 368.000000 368.000000"
 preserveAspectRatio="xMidYMid meet">
<metadata>
Created by potrace 1.11, written by Peter Selinger 2001-2013
</metadata>
<g transform="translate(0.000000,368.000000) scale(0.100000,-0.100000)"
fill="#000000" stroke="none">
<path d="M1534 3368 c-24 -37 -96 -156 -160 -265 -64 -109 -175 -297 -247
-418 -71 -121 -146 -247 -165 -280 -100 -171 -624 -1059 -850 -1442 -56 -94
-102 -174 -102 -177 0 -5 203 -413 256 -517 l14 -25 1562 0 1563 1 110 220
c61 121 121 243 133 271 l24 51 -168 284 c-423 717 -631 1070 -674 1144 -26
44 -174 296 -330 560 -156 264 -307 521 -335 570 l-53 90 -268 0 -267 0 -43
-67z m563 16 c3 -9 110 -192 249 -425 35 -59 72 -122 82 -140 11 -19 124 -212
252 -429 129 -217 238 -404 244 -415 6 -11 19 -31 27 -45 9 -14 146 -245 304
-515 158 -269 303 -514 321 -544 19 -30 31 -57 28 -60 -2 -3 -567 -7 -1255 -8
l-1251 -4 30 53 c16 29 76 136 132 238 56 102 106 190 111 196 6 7 237 9 744
8 404 -1 735 1 735 5 0 3 -276 474 -614 1046 -338 571 -613 1042 -611 1045 6
10 468 5 472 -6z m-396 -222 c64 -108 248 -420 409 -692 161 -272 321 -542
355 -600 34 -58 119 -201 188 -317 l126 -213 -234 0 -233 0 -242 398 c-133
218 -297 486 -363 595 -66 109 -123 200 -127 202 -4 3 -137 -221 -295 -498
-317 -552 -935 -1629 -971 -1691 l-22 -39 -23 44 c-75 145 -212 426 -212 434
0 6 137 242 305 525 168 283 396 670 508 860 112 190 229 388 260 440 31 52
143 242 249 423 106 180 196 327 200 327 3 0 58 -89 122 -198z m-22 -866 c56
-91 101 -167 101 -170 0 -6 -152 -282 -588 -1071 l-161 -290 1293 -3 1294 -2
-115 -233 c-63 -127 -117 -234 -120 -237 -5 -5 -3034 -9 -3044 -4 -6 4 129
243 490 870 64 110 258 449 431 752 173 303 316 551 317 552 1 0 47 -74 102
-164z m191 -308 c30 -50 65 -107 76 -127 12 -20 87 -143 168 -274 80 -132 146
-242 146 -245 0 -9 -846 -9 -854 -1 -4 3 15 44 40 90 26 46 59 107 74 134 15
28 64 118 110 200 46 83 99 179 118 215 44 82 56 100 62 100 3 0 30 -42 60
-92z"/>
</g>
</svg>
