<?xml version="1.0" standalone="no"?>
<!DOCTYPE svg PUBLIC "-//W3C//DTD SVG 20010904//EN"
 "http://www.w3.org/TR/2001/REC-SVG-20010904/DTD/svg10.dtd">
<svg version="1.0" xmlns="http://www.w3.org/2000/svg"
 width="260.000000pt" height="260.000000pt" viewBox="0 0 260.000000 260.000000"
 preserveAspectRatio="xMidYMid meet">
<metadata>
Created by potrace 1.11, written by Peter Selinger 2001-2013
</metadata>
<g transform="translate(0.000000,260.000000) scale(0.100000,-0.100000)"
fill="#000000" stroke="none">
<path d="M1096 2358 c-13 -21 -41 -70 -236 -408 -36 -63 -110 -191 -165 -285
-54 -93 -121 -210 -150 -260 -28 -49 -102 -178 -165 -285 -62 -107 -147 -253
-188 -325 -41 -71 -86 -147 -99 -167 -25 -40 -28 -58 -14 -74 5 -5 48 -81 96
-169 48 -88 93 -163 99 -167 6 -4 475 -8 1043 -8 l1031 0 21 26 c12 15 21 31
21 35 0 5 18 48 41 96 22 49 56 122 75 163 l35 76 -150 252 c-83 139 -162 273
-177 300 -14 26 -84 144 -154 262 -231 390 -445 753 -506 857 l-59 103 -192 0
c-189 0 -193 0 -207 -22z m543 -371 c102 -171 266 -449 366 -617 411 -691 428
-722 414 -731 -18 -11 -1520 -11 -1537 0 -10 6 3 37 55 132 l68 124 503 3
c378 2 502 5 502 14 0 13 1 11 -248 433 -185 314 -396 672 -480 815 -30 52
-62 105 -70 118 l-14 22 128 0 129 0 184 -313z m-367 43 c63 -107 193 -328
288 -490 95 -162 206 -350 247 -418 40 -68 73 -127 73 -133 0 -5 -51 -9 -119
-9 l-119 0 -34 58 c-20 31 -95 154 -168 272 -73 118 -170 277 -217 353 -46 75
-87 137 -91 137 -4 0 -49 -75 -101 -168 -52 -92 -115 -203 -141 -247 -25 -44
-69 -120 -97 -170 -27 -49 -97 -173 -155 -275 -98 -173 -242 -427 -310 -547
-16 -29 -33 -53 -36 -53 -9 0 -126 209 -130 232 -3 15 20 59 180 333 39 66
103 176 143 245 181 313 257 443 322 555 39 66 83 141 97 167 25 46 146 254
201 347 31 52 11 75 167 -189z m-84 -451 c23 -38 42 -77 42 -86 0 -14 -35 -84
-126 -250 -63 -115 -95 -175 -149 -278 -32 -60 -61 -114 -65 -120 -4 -5 -40
-72 -79 -147 l-72 -138 846 0 847 0 -6 -24 c-3 -13 -30 -73 -58 -133 l-53
-108 -972 -3 c-832 -2 -973 0 -973 12 0 8 22 52 48 98 27 45 120 209 207 363
87 154 178 313 202 353 23 40 43 74 43 76 0 2 46 84 103 182 56 99 113 200
127 227 14 26 29 47 35 47 6 0 29 -32 53 -71z m144 -236 c19 -32 76 -124 127
-205 50 -81 91 -150 91 -153 0 -3 -113 -5 -251 -5 l-250 0 62 118 c34 64 82
152 106 196 24 43 43 81 43 85 0 11 23 31 30 26 4 -3 23 -31 42 -62z"/>
</g>
</svg>
